# xmcd
#
# Track frame offsets:
#	187
#	35048
#	64625
#	80134
#	94326
#	159402
#	161753
#	190006
#	205114
#	214714
#	225581
#	253480
#	264968
#	277429
#	312362
#
# Disc length: 4637 seconds
#
# Revision: 2
# Processed by: cddbd v1.5.2PL0 Copyright (c) Steve Scherf et al.
# Submitted via: audiograbber 1.83.01
#
DISCID=de121b0f
DTITLE=Kraftwerk - 3-D The Catalogue [CD 7) - The Mix
DYEAR=2017
DGENRE=Electronic
TTITLE0=The Robots [headphone surround 3D mix]
TTITLE1=Computer Love [headphone surround 3D mix]
TTITLE2=Pocket Calculator [headphone surround 3D mix]
TTITLE3=Dentaku [headphone surround 3D mix]
TTITLE4=Autobahn [headphone surround 3D mix]
TTITLE5=Geiger Counter [headphone surround 3D mix]
TTITLE6=Radioactivity [headphone surround 3D mix]
TTITLE7=Trans Europe Express [headphone surround 3D mix]
TTITLE8=Metal On Metal [headphone surround 3D mix]
TTITLE9=Abzug [headphone surround 3D mix]
TTITLE10=Home Computer [headphone surround 3D mix]
TTITLE11=Boing Boom Tschak [headphone surround 3D mix]
TTITLE12=Techno Pop [headphone surround 3D mix]
TTITLE13=Music Non Stop [headphone surround 3D mix]
TTITLE14=Planet Of Visions [headphone surround 3D mix]
EXTD=
EXTT0=
EXTT1=
EXTT2=
EXTT3=
EXTT4=
EXTT5=
EXTT6=
EXTT7=
EXTT8=
EXTT9=
EXTT10=
EXTT11=
EXTT12=
EXTT13=
EXTT14=
PLAYORDER=
